<svg id="Icons" xmlns="http://www.w3.org/2000/svg" viewBox="110 0 1024 1024">
	<defs>
		<style>.cls-1{fill:#54392d;}</style>
	</defs>
	<path transform="scale(1, -1) translate(230, -960)" class="cls-1" d="M562.234 701.102l-1.932 9.66c-1.932 9.66-1.932 17.389-1.932 23.185 0 3.864 0 7.728 0 15.457-3.864 17.389-3.864 34.777-7.728 50.234-9.66 44.438 5.796 123.653-168.091 113.992-135.245-7.728-142.974-23.185-144.906-197.072h-50.234c-7.728 206.732 40.574 235.713 200.936 243.442 208.664 7.728 197.072-90.808 208.664-150.702 3.864-17.389 3.864-34.777 7.728-52.166 1.932-7.728-17.389-13.525-17.389-19.321s19.321-9.66 21.253-17.389l1.932-9.66-48.302-9.66zM187.411 714.626v0h9.66zM177.751 714.626h9.66zM792.151 11.351c-9.66 156.498-59.894 641.449-77.283 753.509 0 1.932-25.117 19.321-42.506 19.321-73.419 0-469.494 0-575.758 0-15.457 0-32.845-5.796-38.642-42.506 0 0-13.525-98.536-13.525-98.536s-21.253-195.14-30.913-370.958c-7.728-133.313-13.525-262.762-13.525-266.626 1.932-46.37 79.215-56.030 112.060-65.691 11.592-3.864 25.117-5.796 48.302-3.864 193.208 7.728 587.351 27.049 608.604 28.981 21.253 3.864 23.185 34.777 23.185 46.37zM96.604-23.426c-46.37 13.525-57.962 34.777-56.030 77.283 0 38.642 21.253 548.709 30.913 544.845 13.525 1.932 46.37-595.079 46.37-608.604s-13.525-15.457-21.253-13.525z" />
</svg>
