<svg xmlns="http://www.w3.org/2000/svg" xmlns:xlink="http://www.w3.org/1999/xlink" width="158" height="32" viewBox="0 0 158 32">
    <defs>
        <path id="a" d="M.02.08h157.274v30.736H.02z"/>
    </defs>
    <g fill="none" fill-rule="evenodd">
        <g transform="translate(.375 .5)">
            <mask id="b" fill="#fff">
                <use xlink:href="#a"/>
            </mask>
            <path fill="#FFFFFE" d="M150.382 30.837a6.913 6.913 0 0 0 6.912-6.912V6.992A6.913 6.913 0 0 0 150.382.08L6.912.081A6.913 6.913 0 0 0 0 6.993v16.932a6.913 6.913 0 0 0 6.912 6.912h143.47" mask="url(#b)"/>
        </g>
        <path fill="#972723" d="M35.638 28.94a4.522 4.522 0 0 1-4.521-4.521V7.49a4.52 4.52 0 0 1 4.52-4.52h115.12a4.519 4.519 0 0 1 4.52 4.52V24.42a4.52 4.52 0 0 1-4.52 4.52H35.637"/>
        <path fill="#321807" d="M7.291 28.944a4.52 4.52 0 0 1-4.52-4.522V7.494a4.519 4.519 0 0 1 4.52-4.519h16.912a4.518 4.518 0 0 1 4.52 4.52v16.927a4.52 4.52 0 0 1-4.52 4.522H7.29"/>
        <path fill="#FFFFFE" d="M18.225 23.91c.563 0 2.13-.835 1.548-1.219-.366-.242-.797-.563-1.595-1.173-.356-.273-.513-.198-.621-.198-.328 0 .204-.53.028-.961-.194-.466-.304-1.181-.468-1.345-.164-.164-.097-1.028.248-1.372.374-.375.915-1.467 1.212-1.888.353-.5.595-1.599.456-1.74-.142-.14-.785-1.473-1.066-1.755-.181-.18-.477-.627-.776-.99l-.07-.1-.304.173c-.302.173-.676.531-.676.531s-.26.086-.863-.034c-.324-.065-.44-.293-.44-.553 0-.259-.17-.193-.17-.193s-2.777.146-2.999.276c-.222.129-1.193 1.459-1.193 1.459s-.517 5.058-.118 5.457c.476.476 2.698 4.387 3.162 4.853.463.635 4.143.773 4.705.773zm-5.603-11.197c-.313.057-.82-.032-1.058.401l-.452 1.968s.048 1.975.09 2.365c.044.39.553 1.663.838 1.95.251.25.479 1.084.921 1.52.121.118.365.176.466.314.184.25.33.078 0-.411-1.213-1.799-1.476-3.35-1.536-3.615-.13-.577-.033-1.939 0-2.484.019-.288.219-.934.409-1.08.09-.068.921-.16 1.09-.209.26-.076.63-.07.867-.119.764-.157 1.905.233 2 .278 1.143.528.699.712.717.774.018.065-1.592 3.303-1.584 3.455.008.164.065 1.784.218 2.227.044.13.551 1.356.643 1.578.403.973-.865-.16-.947-.206-.081-.046-1.49-2.917-1.733-3.527-.162-.409-.103-1.025-.07-1.156.043-.18-.087-1.568.171-1.758.175-.129.696-.207 1.073-.041.344.151.527.534.492.627-.028.077-.57 1.826-.654 1.68-.028-.047-.03-.6-.102-.656-.072-.056-.208-.141-.257-.076-.049.065-.147.651-.096.854.243.971.544.668.65.488.157-.27.922-2.42.908-2.559-.032-.319-.266-.864-.762-1.03-.297-.1-1.33-.044-1.686.142-.546.287-.513 2.775-.41 3.135.104.36 1.564 3.251 1.645 3.472.16.434 1.202 1.464 1.365 1.56.068.04 1.492.592 1.675.318.08-.122.041-.457-.313-.689-.34-.223-1.152-2.587-1.149-2.773.003-.172-.211-1.488-.069-1.762.27-.523 2.206-3.425 1.995-3.658-.285-.314-1.152-1.78-1.56-1.227-.37.498-1.849-.015-2.282-.333-.033-.024-1.06.18-1.513.263zm8.218-6.82c.174.02.936.288.936.288s.737 1.077.925 1.308c.189.23.105.398.105.398l-.362 1.32s.131.107 0 0c-.132-.107-1.107-.019-1.338.003-.23.02.21-.273.315-.378.105-.105.525-.4.472-.568-.052-.169-.685-1.395-.685-1.395s-1.109-.01-1.634.053c-.524.063-1.629 1.161-1.629 1.161l-.4 1.588s.161.294.392.482c.231.19.903.127 1.155.105.251-.02.146.273-.064.462-.21.19-.965.19-.965.19l.314.105c.348.315.985 1.93 1.36 2.306.375.374-.012 2.268-.55 2.808-.54.539-.798 1.697-1.126 2.025-.328.329-.668.199-.328.54.34.34.181.75.234 1.046.035.195.09.547.256.71.163.164 2.655 1.89 3.655 1.97.182.014.184.893-.842 1.971 0 0-.184.626-1.894.679-1.865.058-3.701-.253-4.123-.253-.423 0-1.648-.697-1.648-.697-.234 0-3.869-5.421-3.869-5.795 0-.375-.277-1.387-.277-1.762 0-.376.434-3.81.365-4.225-.055-.327.115-.402.49-.778.376-.374 1.053-1.01 1.31-1.267.116-.115 1.015-.09 2.102-.323l.169-.072-.216-.105s-.35-.44-.917-.42c-.567.022-.755.063-.462-.062.294-.126.822-.524.822-.524l1.235.545h.671l1.17-.962 2.652-2.155 2.224-.323zM44.117 10.966c1.407 0 2.534.578 3.53 1.439a.39.39 0 0 0 .548-.04l1.027-1.196a.39.39 0 0 0-.04-.548c-1.23-1.075-2.754-1.855-5.045-1.855-4.127 0-7.027 3.173-7.027 7.066v-.078c0 3.892 2.9 7.064 7.027 7.064 2.29 0 3.816-.78 5.045-1.854a.39.39 0 0 0 .04-.547l-1.027-1.197a.39.39 0 0 0-.548-.04c-.996.861-2.123 1.439-3.53 1.439-2.608 0-4.496-2.14-4.496-4.826 0-2.687 1.888-4.827 4.496-4.827zm38.213 5.12a.39.39 0 0 1-.388-.39v-4.128a.39.39 0 0 1 .388-.389h2.395c1.792 0 2.94.837 2.94 2.453 0 1.46-1.129 2.453-2.94 2.453H82.33zm7.767-2.512C90.097 10.79 88.093 9 84.92 9h-4.983a.389.389 0 0 0-.388.389v12.847c0 .212.174.387.388.387h1.617a.389.389 0 0 0 .388-.387v-3.603a.39.39 0 0 1 .388-.388h2.319c2.997 0 5.448-1.596 5.448-4.671zm58.19-2.822a.39.39 0 0 1-.39.389h-6.929a.39.39 0 0 0-.39.388v3.622a.39.39 0 0 0 .39.389h5.198a.39.39 0 0 1 .388.388v1.364a.39.39 0 0 1-.388.388h-5.198a.39.39 0 0 0-.39.389v2.026a.39.39 0 0 0 .39.388h7.027a.39.39 0 0 1 .389.389v1.364a.39.39 0 0 1-.389.387h-9.422a.39.39 0 0 1-.389-.387V9.389a.39.39 0 0 1 .389-.389h9.324a.39.39 0 0 1 .39.389v1.363zM125.232 9.39a.39.39 0 0 1 .39-.389h1.616a.39.39 0 0 1 .389.389v10.666c0 .214.174.389.388.389h6.385a.39.39 0 0 1 .388.388v1.404a.389.389 0 0 1-.388.387h-8.779a.39.39 0 0 1-.389-.387V9.389zm-8.46 12.847a.39.39 0 0 1-.389.387h-1.635a.39.39 0 0 1-.39-.387v-10.63a.389.389 0 0 0-.387-.388h-3.544a.39.39 0 0 1-.39-.388V9.39a.39.39 0 0 1 .39-.389h10.278a.39.39 0 0 1 .388.389v1.441a.389.389 0 0 1-.388.388h-3.544a.39.39 0 0 0-.389.389v10.629zm-16.22-11.27c-2.704 0-4.593 2.16-4.593 4.827 0 2.665 1.927 4.864 4.633 4.864 2.705 0 4.593-2.16 4.593-4.825 0-2.668-1.927-4.866-4.632-4.866zm0 11.892c-4.184 0-7.102-3.173-7.102-7.026 0-3.854 2.957-7.066 7.142-7.066 4.184 0 7.104 3.173 7.104 7.027 0 3.853-2.958 7.065-7.143 7.065zM73.838 9a.39.39 0 0 1 .389.389v12.847a.39.39 0 0 1-.389.387H72.22a.39.39 0 0 1-.389-.387V9.389a.39.39 0 0 1 .39-.389h1.616zm-16.76 8.739a.39.39 0 0 0-.388.388v4.109a.39.39 0 0 1-.388.387h-1.617a.39.39 0 0 1-.389-.387V9.389A.39.39 0 0 1 54.684 9H56.3a.39.39 0 0 1 .388.389v5.743a.39.39 0 0 0 .388.388h6.3a.39.39 0 0 0 .388-.388V9.389A.39.39 0 0 1 64.154 9h1.617a.39.39 0 0 1 .388.389v12.847a.39.39 0 0 1-.388.387h-1.617a.39.39 0 0 1-.389-.387v-4.109a.39.39 0 0 0-.389-.388h-6.299z"/>
    </g>
</svg>
